<svg id="Layer_1" data-name="Layer 1" xmlns="http://www.w3.org/2000/svg" viewBox="0 0 582.59 307.49"><defs><style>.cls-1{fill:#fff;}</style></defs><title>visionclothingco</title><text x="-349.72" y="-338.91"></text><path class="cls-1" d="M929.1,584.87c5.3-6.86-10.34,13.94-16,20.5a120,120,0,0,1-31,25.5,123.25,123.25,0,0,1-35,13,117.9,117.9,0,0,1-21,2.5,119.26,119.26,0,0,1-24-2,129.25,129.25,0,0,1-26.5-7c-21.38-8.44-34.65-22.26-44-32a185.7,185.7,0,0,1-21.5-27.5,236.82,236.82,0,0,1-15.5-27l15-36.5-.5-1s10.38,23.67,23,43c9.76,15,22.43,34.35,46.5,48,8.5,4.82,26,14.46,49.5,13.5a91.55,91.55,0,0,0,31.5-7.5c13.76-5.95,22.57-13.73,29-19.5a130.62,130.62,0,0,0,21.15-24.37ZM641,554.32,595.43,433.15s-26.68-67.86-104-89.67-134.53,40.59-141.76,59.38l24.46,20.6s17.24-44.83,84.5-47.86S556,423.45,577.09,476.16s57.81,152.07,57.81,152.07h6.87V552.37ZM790.56,343.48c-77.27,21.81-104,89.67-104,89.67L641,554.32l-1.28-3.3v77.22h7.4S683.83,528.87,705,476.16s51.14-103.6,118.41-100.57,84.5,47.86,84.5,47.86l24.46-20.6C925.09,384.07,867.83,321.67,790.56,343.48ZM801,342m5.33,82M571.66,514.52l-.06-.06c-2.21,4.86-11.49,25-22.5,41.9-9.76,15-22.43,34.35-46.5,48-8.5,4.82-26,14.46-49.5,13.5a91.55,91.55,0,0,1-31.5-7.5c-13.76-5.95-22.57-13.73-29-19.5a130.62,130.62,0,0,1-21.15-24.37L352.1,584.87c-5.3-6.86,10.34,13.94,16,20.5a120,120,0,0,0,31,25.5,123.25,123.25,0,0,0,35,13,117.9,117.9,0,0,0,21,2.5,119.26,119.26,0,0,0,24-2,129.25,129.25,0,0,0,26.5-7c21.38-8.44,34.65-22.26,44-32a185.7,185.7,0,0,0,21.5-27.5,236.81,236.81,0,0,0,15.5-27Z" transform="translate(-349.72 -338.91)"/></svg>